# xmcd
#
# Track frame offsets:
#	150
#	15704
#	25597
#	38561
#	51622
#	67253
#	82267
#
# Disc length: 1382 seconds
#
# Revision: 1
# Processed by: cddbd v1.5.2PL0 Copyright (c) Steve Scherf et al.
# Submitted via: audiograbber 1.83.01
#
DISCID=5c056407
DTITLE=Old Lu and die Mississippi Lynchkapelle - Weisser Outlaw
DYEAR=2019
DGENRE=Country
TTITLE0=Klan Song
TTITLE1=Kehre um, Fremder
TTITLE2=Weisser Outlaw
TTITLE3=Stand up and be counted
TTITLE4=Mississippe Blues
TTITLE5=Grandpa´s Daddy
TTITLE6=Ich und der Teufel
EXTD=
EXTT0=
EXTT1=
EXTT2=
EXTT3=
EXTT4=
EXTT5=
EXTT6=
PLAYORDER=
